<svg xmlns="http://www.w3.org/2000/svg" version="1.1" xmlns:xlink="http://www.w3.org/1999/xlink" xmlns:svgjs="http://svgjs.com/svgjs" width="480" height="480"><svg xmlns="http://www.w3.org/2000/svg" xml:space="preserve" viewBox="0 0 480 480">
  <path d="M244 481c-5-3-6-8-6-13v-58l-1-6-21 6c-41 10-80 6-116-14a86 86 0 0 1-38-46c-8-20-11-41-11-62-1-22 0-44 5-66 8-37 29-66 58-91 26-22 57-37 88-51 18-7 31-20 35-40l1-13 1-8c1-4 4-6 9-6 3 0 6 2 7 6l1 11c0 22 11 37 29 47 16 8 33 14 48 23 30 16 56 35 76 62 17 22 27 47 31 75 3 20 5 40 3 61-2 25-7 50-22 72a97 97 0 0 1-56 38 161 161 0 0 1-108-5l-1 1v65c0 4-1 9-6 12h-6m158-299c-11-17-25-31-40-43-24-18-49-31-76-42-15-6-28-15-37-29 0-1-1-2-3-2-11 18-29 28-48 36-26 11-50 24-72 42-24 20-41 44-50 74a227 227 0 0 0 0 119c7 19 17 36 36 45 41 20 82 19 123 3 2-1 3-3 3-5v-29c0-4-2-5-5-6-10-2-20-7-29-14-25-18-42-43-56-70-3-6-2-11 3-13 5-3 10-1 13 5 8 15 17 29 27 42 12 14 25 25 42 32 3 1 5 0 5-4v-73c0-3-1-4-4-6-12-4-20-13-26-24-8-15-11-31-11-47 0-6 3-9 8-10 5 0 9 4 9 9l1 14c2 11 5 23 13 32 2 3 5 7 10 8v-83l1-8c1-3 4-5 8-5s8 2 8 6l1 8v123l1 8c7-4 11-9 15-15 12-17 19-36 24-55 2-7 6-10 12-8 5 1 7 6 5 12-4 18-10 35-19 50s-19 28-35 36c-3 1-3 3-3 5v39c0 2-1 4 2 5 9-2 17-5 25-11 24-15 38-37 47-62 2-6 6-9 12-7 4 1 7 6 5 12l-7 16c-17 35-41 61-81 70-2 1-3 2-3 5v12c0 3 1 5 4 6 33 14 67 16 101 6 24-7 42-20 52-43 8-17 12-35 13-53 0-17 0-33-2-49-3-22-9-44-22-64z"></path>
</svg><style>@media (prefers-color-scheme: light) { :root { filter: none; } }
    @media (prefers-color-scheme: dark) { :root { filter: invert(100%); } }
</style></svg>

